<?xml version="1.0" encoding="iso-8859-1"?>
<!-- Generator: Adobe Illustrator 19.0.0, SVG Export Plug-In . SVG Version: 6.00 Build 0)  -->
<svg version="1.1" id="Capa_1" xmlns="http://www.w3.org/2000/svg" xmlns:xlink="http://www.w3.org/1999/xlink" x="0px" y="0px"
	 viewBox="0 0 512 512" style="enable-background:new 0 0 512 512;" xml:space="preserve">
<g>
	<g>
		<g>
			<path d="M511.911,90.257c-0.052-1.017-0.126-2.029-0.222-3.034c-2.783-29.155-23.968-53.024-51.774-59.826
				c-1.918-0.469-3.867-0.857-5.844-1.16c-3.389-0.519-6.859-0.789-10.391-0.789H68.319c-3.532,0-7.002,0.269-10.391,0.789
				c-1.977,0.303-3.926,0.691-5.844,1.16C24.278,34.199,3.094,58.067,0.31,87.223c-0.096,1.005-0.17,2.017-0.222,3.034
				C0.03,91.419,0,92.59,0,93.767v190.181v40.974c0,37.671,30.647,68.319,68.319,68.319h138.47v73.311h-52.632
				c-5.522,0-10,4.477-10,10s4.478,10,10,10h62.632h78.422h62.632c5.522,0,10-4.477,10-10s-4.478-10-10-10h-52.632v-73.311h138.47
				c37.672,0,68.319-30.647,68.319-68.319v-40.974V93.767C512,92.59,511.97,91.419,511.911,90.257z M285.211,466.552h-58.422
				v-73.311h58.422V466.552z M492,324.922c0,26.643-21.676,48.319-48.319,48.319h-148.47h-78.422H68.319
				C41.676,373.241,20,351.565,20,324.922v-30.974h41.018c5.522,0,10-4.477,10-10s-4.478-10-10-10H20V93.767
				c0-26.643,21.676-48.319,48.319-48.319H443.68c26.644,0,48.319,21.676,48.319,48.319v180.181H141.018c-5.522,0-10,4.477-10,10
				s4.478,10,10,10H492V324.922z"/>
			<path d="M256,368.5c17.921,0,32.5-14.58,32.5-32.5c0-17.92-14.579-32.5-32.5-32.5c-17.921,0-32.5,14.58-32.5,32.5
				C223.5,353.92,238.079,368.5,256,368.5z M256,323.5c6.893,0,12.5,5.607,12.5,12.5s-5.607,12.5-12.5,12.5s-12.5-5.607-12.5-12.5
				S249.107,323.5,256,323.5z"/>
			<path d="M194.616,203.532l21.439-76.146l20.924,116.092c0.776,4.305,4.261,7.606,8.602,8.149
				c0.417,0.052,0.832,0.078,1.244,0.078c3.88,0,7.461-2.26,9.099-5.859l23.052-50.667l4.577,9.855
				c1.639,3.53,5.178,5.788,9.069,5.788h36.64c4.479,0,8.412-2.979,9.626-7.29l21.438-76.146l20.925,116.092
				c0.776,4.305,4.261,7.606,8.602,8.149c4.342,0.546,8.531-1.799,10.343-5.782l23.051-50.667l4.577,9.855
				c1.639,3.53,5.178,5.788,9.069,5.788h36.641c5.522,0,10-4.477,10-10s-4.478-10-10-10h-30.259l-11.053-23.797
				c-1.64-3.531-5.179-5.788-9.069-5.788c-0.013,0-0.026,0-0.039,0c-3.906,0.015-7.445,2.304-9.063,5.859l-18.797,41.316
				l-22.944-127.3c-0.826-4.584-4.709-7.991-9.361-8.214c-4.686-0.219-8.844,2.795-10.106,7.278l-31.152,110.646h-22.685
				l-11.053-23.797c-1.64-3.531-5.179-5.788-9.069-5.788c-0.013,0-0.026,0-0.039,0c-3.906,0.015-7.445,2.303-9.063,5.859
				l-18.798,41.316l-22.943-127.3c-0.826-4.584-4.709-7.991-9.361-8.214c-4.659-0.227-8.844,2.794-10.106,7.278l-31.153,110.646H114
				c-5.522,0.001-10,4.478-10,10.001c0,5.523,4.478,10,10,10h70.99C189.469,210.822,193.402,207.843,194.616,203.532z"/>
			<path d="M61.75,121.5h20c15.025,0,27.25-12.224,27.25-27.25S96.775,67,81.75,67h-20C46.725,67,34.5,79.224,34.5,94.25
				S46.725,121.5,61.75,121.5z M61.75,87h20c3.998,0,7.25,3.252,7.25,7.25s-3.252,7.25-7.25,7.25h-20c-3.998,0-7.25-3.252-7.25-7.25
				S57.752,87,61.75,87z"/>
			<path d="M109,159.698c0-15.026-12.225-27.25-27.25-27.25h-20c-15.025,0-27.25,12.224-27.25,27.25s12.225,27.25,27.25,27.25h20
				C96.775,186.948,109,174.724,109,159.698z M81.75,166.948h-20c-3.998,0-7.25-3.252-7.25-7.25s3.252-7.25,7.25-7.25h20
				c3.998,0,7.25,3.252,7.25,7.25S85.748,166.948,81.75,166.948z"/>
			<path d="M110.25,280.12c-0.25-0.6-0.561-1.18-0.92-1.72c-0.36-0.55-0.78-1.06-1.24-1.52c-0.46-0.46-0.97-0.88-1.521-1.25
				c-0.539-0.36-1.119-0.67-1.729-0.92c-0.6-0.25-1.23-0.44-1.87-0.57c-1.29-0.26-2.62-0.26-3.91,0c-0.63,0.13-1.26,0.32-1.87,0.57
				c-0.6,0.25-1.18,0.56-1.72,0.92c-0.55,0.37-1.06,0.79-1.52,1.25c-0.471,0.46-0.881,0.97-1.25,1.52
				c-0.36,0.54-0.67,1.12-0.92,1.72c-0.25,0.61-0.44,1.24-0.57,1.87c-0.13,0.65-0.19,1.31-0.19,1.96c0,2.63,1.061,5.21,2.931,7.07
				c0.46,0.46,0.97,0.88,1.52,1.24c0.54,0.36,1.12,0.67,1.72,0.92c0.61,0.25,1.24,0.44,1.87,0.57c0.65,0.13,1.3,0.2,1.96,0.2
				c0.65,0,1.311-0.07,1.95-0.2c0.64-0.13,1.271-0.32,1.87-0.57c0.61-0.25,1.19-0.56,1.729-0.92c0.551-0.36,1.061-0.78,1.521-1.24
				c1.86-1.86,2.93-4.44,2.93-7.07c0-0.65-0.069-1.31-0.2-1.96C110.689,281.36,110.5,280.73,110.25,280.12z"/>
		</g>
	</g>
</g>
<g>
</g>
<g>
</g>
<g>
</g>
<g>
</g>
<g>
</g>
<g>
</g>
<g>
</g>
<g>
</g>
<g>
</g>
<g>
</g>
<g>
</g>
<g>
</g>
<g>
</g>
<g>
</g>
<g>
</g>
</svg>
