<svg height="512pt" viewBox="-66 0 512 512" width="512pt" xmlns="http://www.w3.org/2000/svg"><path d="m329 40h-280c-5.523438 0-10 4.476562-10 10v202c0 5.523438 4.476562 10 10 10h280c5.523438 0 10-4.476562 10-10v-202c0-5.523438-4.476562-10-10-10zm-10 202h-260v-182h260zm0 0"/><path d="m330 0h-280c-27.570312 0-50 22.429688-50 50v202c0 79.347656 61.933594 144.492188 140 149.660156v100.339844c0 5.523438 4.476562 10 10 10h80c5.523438 0 10-4.476562 10-10v-100.339844c78.066406-5.164062 140-70.3125 140-149.660156v-202c0-27.570312-22.429688-50-50-50zm-110 492h-60v-20h60zm0-40h-60v-50h60zm140-200c0 71.683594-58.316406 130-130 130h-80c-71.683594 0-130-58.316406-130-130v-202c0-16.542969 13.457031-30 30-30h280c16.542969 0 30 13.457031 30 30zm0 0"/><path d="m170 282h-101c-2.738281 0-5.359375 1.121094-7.246094 3.105469-1.886718 1.984375-2.878906 4.65625-2.742187 7.394531.09375 1.886719 1.351562 18.9375 16.179687 36.050781 19.238282 22.195313 51.136719 33.449219 94.808594 33.449219 5.523438 0 10-4.476562 10-10v-60c0-5.523438-4.476562-10-10-10zm-10 59.773438c-54.433594-2.542969-72.332031-25.777344-78.191406-39.773438h78.191406zm0 0"/><path d="m311 282h-101c-5.523438 0-10 4.476562-10 10v60c0 5.523438 4.476562 10 10 10 43.671875 0 75.570312-11.253906 94.808594-33.449219 14.828125-17.113281 16.085937-34.164062 16.179687-36.050781.136719-2.734375-.855469-5.40625-2.742187-7.394531-1.886719-1.984375-4.507813-3.105469-7.246094-3.105469zm-91 59.773438v-39.773438h78.179688c-5.875 14.035156-23.789063 37.234375-78.179688 39.773438zm0 0"/><path d="m169 222c5.511719 0 10-4.488281 10-10s-4.488281-10-10-10-10 4.488281-10 10 4.488281 10 10 10zm0 0"/><path d="m89 222h40c5.511719 0 10-4.488281 10-10s-4.488281-10-10-10h-40c-5.511719 0-10 4.488281-10 10s4.488281 10 10 10zm0 0"/><path d="m249 222c5.511719 0 10-4.488281 10-10s-4.488281-10-10-10c-5.519531 0-10 4.488281-10 10s4.480469 10 10 10zm0 0"/><path d="m209 222c5.511719 0 10-4.488281 10-10s-4.488281-10-10-10c-5.519531 0-10 4.488281-10 10s4.480469 10 10 10zm0 0"/></svg>