<svg height="512pt" viewBox="0 0 512.00029 512" width="512pt" xmlns="http://www.w3.org/2000/svg"><path d="m491.859375 0h-471.644531c-11.109375 0-20.1445315 9.035156-20.1445315 20.140625v371.8125c0 5.5625 4.5078125 10.070313 10.0703125 10.070313s10.074219-4.507813 10.074219-10.070313v-301.375h471.644531v401.210937h-471.644531v-18.910156c0-5.5625-4.511719-10.074218-10.074219-10.074218s-10.0703125 4.511718-10.0703125 10.074218v18.910156c0 11.105469 9.0351565 20.140626 20.1445315 20.140626h471.644531c11.105469 0 20.140625-9.035157 20.140625-20.140626v-471.648437c0-11.105469-9.035156-20.140625-20.140625-20.140625zm-471.644531 70.4375v-50.296875h471.644531v50.296875zm0 0"/><path d="m56.511719 42.222656c-2.089844-5.152344-7.964844-7.636718-13.117188-5.542968-5.15625 2.089843-7.636719 7.964843-5.546875 13.117187l.144532.355469c1.585937 3.914062 5.355468 6.289062 9.335937 6.289062 1.261719 0 2.542969-.238281 3.785156-.742187 5.152344-2.09375 7.636719-7.964844 5.542969-13.117188zm0 0"/><path d="m86.847656 42.234375c-2.082031-5.15625-7.953125-7.644531-13.109375-5.558594-5.160156 2.085938-7.648437 7.957031-5.5625 13.113281l.144531.355469c1.585938 3.917969 5.355469 6.296875 9.339844 6.296875 1.257813 0 2.535156-.238281 3.773438-.738281 5.15625-2.085937 7.644531-7.957031 5.558594-13.113281zm0 0"/><path d="m117.183594 42.234375c-2.085938-5.15625-7.953125-7.644531-13.113282-5.558594-5.15625 2.085938-7.644531 7.957031-5.5625 13.113281l.144532.355469c1.585937 3.917969 5.359375 6.296875 9.339844 6.296875 1.257812 0 2.539062-.238281 3.773437-.738281 5.15625-2.085937 7.648437-7.957031 5.5625-13.113281zm0 0"/><path d="m361.6875 42.234375c-2.085938-5.15625-7.953125-7.644531-13.113281-5.558594-5.15625 2.085938-7.644531 7.957031-5.558594 13.113281l.144531.355469c1.582032 3.917969 5.355469 6.296875 9.339844 6.296875 1.253906 0 2.535156-.238281 3.773438-.738281 5.15625-2.085937 7.644531-7.957031 5.558593-13.113281zm0 0"/><path d="m463.34375 35.21875h-70.578125c-5.5625 0-10.070313 4.507812-10.070313 10.070312s4.507813 10.070313 10.070313 10.070313h70.578125c5.5625 0 10.070312-4.507813 10.070312-10.070313s-4.507812-10.070312-10.070312-10.070312zm0 0"/><path d="m.871094 436.636719c1.585937 3.921875 5.359375 6.300781 9.339844 6.300781 1.257812 0 2.539062-.238281 3.773437-.738281 5.15625-2.085938 7.648437-7.957031 5.5625-13.113281l-.136719-.335938c-2.085937-5.15625-7.953125-7.644531-13.113281-5.558594-5.15625 2.085938-7.644531 7.957032-5.558594 13.113282zm0 0"/><path d="m309.300781 282.566406c-4.628906-3.085937-10.882812-1.839844-13.96875 2.785156l-15.503906 23.230469c-6.34375-2.015625-13.09375-3.105469-20.097656-3.105469-36.652344 0-66.46875 29.820313-66.46875 66.472657 0 5.5625 4.507812 10.070312 10.070312 10.070312h112.796875c5.5625 0 10.070313-4.507812 10.070313-10.070312 0-22.414063-11.148438-42.273438-28.195313-54.316407l14.082032-21.097656c3.085937-4.625 1.839843-10.878906-2.785157-13.96875zm-94.796875 79.308594c4.613282-20.71875 23.140625-36.253906 45.226563-36.253906 22.085937 0 40.613281 15.535156 45.222656 36.253906zm0 0"/><path d="m413.476562 374.640625c1.207032 4.359375 5.179688 7.378906 9.703126 7.378906h6.167968c5.5625 0 10.070313-4.511719 10.070313-10.074219 0-59.691406-29.542969-115.34375-79.035157-148.867187-.011718-.007813-.023437-.015625-.035156-.023437-29.757812-20.148438-64.550781-30.796876-100.617187-30.796876-32.203125 0-63.8125 8.636719-91.40625 24.972657-26.394531 15.625-48.507813 37.886719-63.949219 64.378906-15.917969 27.316406-24.332031 58.554687-24.332031 90.339844 0 5.5625 4.507812 10.070312 10.070312 10.070312h6.167969c4.527344 0 8.496094-3.019531 9.707031-7.378906 11.058594-39.855469 36.839844-73.460937 72.597657-94.632813 24.476562-14.492187 52.535156-22.152343 81.144531-22.152343 32.039062 0 62.941406 9.460937 89.355469 27.355469 31.429687 21.289062 54.292968 53.050781 64.390624 89.429687zm-3.050781-55.132813c-12.035156-18.496093-27.476562-34.777343-45.617187-47.878906v-19.746094c20.960937 18.351563 36.597656 41.703126 45.617187 67.625zm-301.3125-.257812c3.328125-9.527344 7.5625-18.738281 12.664063-27.496094 10.636718-18.246094 24.835937-34.238281 41.605468-46.96875v20.921875c-21.976562 13.964844-40.378906 32.21875-54.269531 53.542969zm74.414063-64.609375v-22.886719c23.289062-12.675781 49.511718-19.351562 76.203125-19.351562 30.269531 0 59.519531 8.441406 84.933593 24.460937v22.152344c-26.007812-13.984375-55.03125-21.304687-84.933593-21.304687-26.441407 0-52.472657 5.816406-76.203125 16.929687zm0 0"/></svg>